<svg width="205" height="60" viewBox="0 0 205 60" fill="none" xmlns="http://www.w3.org/2000/svg">
<path d="M76.627 39.255C75.7487 39.255 74.9553 39.1048 74.247 38.8045C73.5443 38.4985 72.9635 38.065 72.5045 37.504C72.0512 36.9373 71.7565 36.2658 71.6205 35.4895L73.4735 35.209C73.6605 35.957 74.0515 36.5407 74.6465 36.96C75.2415 37.3737 75.9357 37.5805 76.729 37.5805C77.222 37.5805 77.6753 37.504 78.089 37.351C78.5027 37.1923 78.8342 36.9685 79.0835 36.6795C79.3385 36.3848 79.466 36.0335 79.466 35.6255C79.466 35.4045 79.4263 35.209 79.347 35.039C79.2733 34.869 79.1685 34.7217 79.0325 34.597C78.9022 34.4667 78.7407 34.3562 78.548 34.2655C78.361 34.1692 78.1542 34.087 77.9275 34.019L74.791 33.0925C74.485 33.0018 74.1733 32.8857 73.856 32.744C73.5387 32.5967 73.2468 32.4068 72.9805 32.1745C72.7198 31.9365 72.5073 31.6447 72.343 31.299C72.1787 30.9477 72.0965 30.5227 72.0965 30.024C72.0965 29.2703 72.2892 28.6328 72.6745 28.1115C73.0655 27.5845 73.5925 27.1878 74.2555 26.9215C74.9185 26.6495 75.6608 26.5135 76.4825 26.5135C77.3098 26.5248 78.0493 26.6722 78.701 26.9555C79.3583 27.2388 79.9023 27.6468 80.333 28.1795C80.7693 28.7065 81.0697 29.3468 81.234 30.1005L79.33 30.4235C79.245 29.9645 79.0637 29.5707 78.786 29.242C78.5083 28.9077 78.1683 28.6527 77.766 28.477C77.3637 28.2957 76.9273 28.2022 76.457 28.1965C76.0037 28.1852 75.5872 28.2532 75.2075 28.4005C74.8335 28.5478 74.5332 28.7547 74.3065 29.021C74.0855 29.2873 73.975 29.5933 73.975 29.939C73.975 30.279 74.0742 30.5538 74.2725 30.7635C74.4708 30.9732 74.7145 31.1403 75.0035 31.265C75.2982 31.384 75.59 31.4832 75.879 31.5625L78.14 32.2C78.4233 32.2793 78.7435 32.387 79.1005 32.523C79.4632 32.6533 79.8117 32.8375 80.146 33.0755C80.486 33.3135 80.7665 33.6308 80.9875 34.0275C81.2085 34.4185 81.319 34.9115 81.319 35.5065C81.319 36.1242 81.1943 36.6682 80.945 37.1385C80.6957 37.6032 80.3528 37.9942 79.9165 38.3115C79.4858 38.6232 78.9872 38.8583 78.4205 39.017C77.8538 39.1757 77.256 39.255 76.627 39.255ZM86.8619 39.255C85.9496 39.255 85.1478 39.0567 84.4564 38.66C83.7708 38.2577 83.2353 37.6995 82.8499 36.9855C82.4703 36.2658 82.2804 35.4328 82.2804 34.4865C82.2804 33.4835 82.4674 32.6137 82.8414 31.877C83.2211 31.1403 83.7481 30.5708 84.4224 30.1685C85.0968 29.7662 85.8816 29.565 86.7769 29.565C87.7119 29.565 88.5081 29.7832 89.1654 30.2195C89.8228 30.6502 90.3129 31.265 90.6359 32.064C90.9646 32.863 91.0949 33.8122 91.0269 34.9115H89.2504V34.2655C89.2391 33.2002 89.0351 32.4125 88.6384 31.9025C88.2474 31.3925 87.6496 31.1375 86.8449 31.1375C85.9553 31.1375 85.2866 31.418 84.8389 31.979C84.3913 32.54 84.1674 33.3503 84.1674 34.41C84.1674 35.4187 84.3913 36.2007 84.8389 36.756C85.2866 37.3057 85.9326 37.5805 86.7769 37.5805C87.3323 37.5805 87.8111 37.4558 88.2134 37.2065C88.6214 36.9515 88.9388 36.5888 89.1654 36.1185L90.9079 36.671C90.5509 37.4927 90.0098 38.1302 89.2844 38.5835C88.5591 39.0312 87.7516 39.255 86.8619 39.255ZM83.5894 34.9115V33.526H90.1429V34.9115H83.5894ZM96.6655 39.255C95.7532 39.255 94.9513 39.0567 94.26 38.66C93.5743 38.2577 93.0388 37.6995 92.6535 36.9855C92.2738 36.2658 92.084 35.4328 92.084 34.4865C92.084 33.4835 92.271 32.6137 92.645 31.877C93.0247 31.1403 93.5517 30.5708 94.226 30.1685C94.9003 29.7662 95.6852 29.565 96.5805 29.565C97.5155 29.565 98.3117 29.7832 98.969 30.2195C99.6263 30.6502 100.116 31.265 100.439 32.064C100.768 32.863 100.898 33.8122 100.83 34.9115H99.054V34.2655C99.0427 33.2002 98.8387 32.4125 98.442 31.9025C98.051 31.3925 97.4532 31.1375 96.6485 31.1375C95.7588 31.1375 95.0902 31.418 94.6425 31.979C94.1948 32.54 93.971 33.3503 93.971 34.41C93.971 35.4187 94.1948 36.2007 94.6425 36.756C95.0902 37.3057 95.7362 37.5805 96.5805 37.5805C97.1358 37.5805 97.6147 37.4558 98.017 37.2065C98.425 36.9515 98.7423 36.5888 98.969 36.1185L100.711 36.671C100.354 37.4927 99.8133 38.1302 99.088 38.5835C98.3627 39.0312 97.5552 39.255 96.6655 39.255ZM93.393 34.9115V33.526H99.9465V34.9115H93.393ZM105.461 39V26.76H107.237V32.0385H113.357V26.76H115.142V39H113.357V33.713H107.237V39H105.461ZM121.177 39.255C120.259 39.255 119.463 39.0482 118.788 38.6345C118.114 38.2208 117.593 37.6513 117.224 36.926C116.862 36.195 116.68 35.3535 116.68 34.4015C116.68 33.4438 116.867 32.6023 117.241 31.877C117.615 31.146 118.139 30.5793 118.814 30.177C119.488 29.769 120.276 29.565 121.177 29.565C122.095 29.565 122.891 29.7718 123.565 30.1855C124.24 30.5992 124.761 31.1687 125.129 31.894C125.498 32.6193 125.682 33.4552 125.682 34.4015C125.682 35.3592 125.495 36.2035 125.121 36.9345C124.752 37.6598 124.231 38.2293 123.557 38.643C122.882 39.051 122.089 39.255 121.177 39.255ZM121.177 37.5805C122.055 37.5805 122.71 37.2858 123.14 36.6965C123.577 36.1015 123.795 35.3365 123.795 34.4015C123.795 33.4438 123.574 32.6788 123.132 32.1065C122.695 31.5285 122.044 31.2395 121.177 31.2395C120.582 31.2395 120.092 31.3755 119.706 31.6475C119.321 31.9138 119.035 32.285 118.848 32.761C118.661 33.2313 118.567 33.7782 118.567 34.4015C118.567 35.3648 118.788 36.1355 119.23 36.7135C119.672 37.2915 120.321 37.5805 121.177 37.5805ZM128.833 39L126.028 29.8115L127.787 29.82L129.708 36.1185L131.646 29.82H133.176L135.114 36.1185L137.035 29.82H138.786L135.981 39H134.553L132.411 32.353L130.261 39H128.833ZM143.202 39V26.76H144.978V39H143.202ZM152.444 39C151.866 39.1133 151.299 39.1615 150.744 39.1445C150.188 39.1275 149.692 39.0198 149.256 38.8215C148.82 38.6232 148.491 38.3115 148.27 37.8865C148.072 37.5068 147.964 37.1215 147.947 36.7305C147.936 36.3338 147.93 35.8862 147.93 35.3875V27.27H149.715V35.3025C149.715 35.6708 149.718 35.991 149.724 36.263C149.735 36.535 149.794 36.7645 149.902 36.9515C150.106 37.3028 150.429 37.504 150.871 37.555C151.319 37.6003 151.843 37.5805 152.444 37.4955V39ZM146.171 31.248V29.82H152.444V31.248H146.171ZM159.695 39L156.142 26.76H158.003L160.579 36.0165L163.154 26.7685L165.024 26.76L167.6 36.0165L170.175 26.76H172.045L168.484 39H166.716L164.089 29.8455L161.463 39H159.695ZM176.105 39.255C175.187 39.255 174.391 39.0482 173.717 38.6345C173.042 38.2208 172.521 37.6513 172.153 36.926C171.79 36.195 171.609 35.3535 171.609 34.4015C171.609 33.4438 171.796 32.6023 172.17 31.877C172.544 31.146 173.068 30.5793 173.742 30.177C174.417 29.769 175.204 29.565 176.105 29.565C177.023 29.565 177.819 29.7718 178.494 30.1855C179.168 30.5992 179.689 31.1687 180.058 31.894C180.426 32.6193 180.61 33.4552 180.61 34.4015C180.61 35.3592 180.423 36.2035 180.049 36.9345C179.681 37.6598 179.16 38.2293 178.485 38.643C177.811 39.051 177.018 39.255 176.105 39.255ZM176.105 37.5805C176.984 37.5805 177.638 37.2858 178.069 36.6965C178.505 36.1015 178.723 35.3365 178.723 34.4015C178.723 33.4438 178.502 32.6788 178.06 32.1065C177.624 31.5285 176.972 31.2395 176.105 31.2395C175.51 31.2395 175.02 31.3755 174.635 31.6475C174.249 31.9138 173.963 32.285 173.776 32.761C173.589 33.2313 173.496 33.7782 173.496 34.4015C173.496 35.3648 173.717 36.1355 174.159 36.7135C174.601 37.2915 175.25 37.5805 176.105 37.5805ZM182.138 39V29.82H183.719V32.047L183.498 31.758C183.611 31.4633 183.759 31.1942 183.94 30.9505C184.121 30.7012 184.331 30.4972 184.569 30.3385C184.801 30.1685 185.059 30.0382 185.343 29.9475C185.632 29.8512 185.926 29.7945 186.227 29.7775C186.527 29.7548 186.816 29.769 187.094 29.82V31.486C186.793 31.4067 186.459 31.384 186.091 31.418C185.728 31.452 185.394 31.5682 185.088 31.7665C184.799 31.9535 184.569 32.1802 184.399 32.4465C184.235 32.7128 184.116 33.0103 184.042 33.339C183.968 33.662 183.932 34.0048 183.932 34.3675V39H182.138ZM188.364 39L188.372 26.76H190.174V34.24L193.778 29.82H196.039L192.231 34.41L196.43 39H194.016L190.174 34.58V39H188.364ZM200.292 39.2465C199.176 39.2465 198.266 39 197.563 38.507C196.861 38.014 196.43 37.3198 196.271 36.4245L198.09 36.144C198.204 36.62 198.464 36.9968 198.872 37.2745C199.286 37.5465 199.799 37.6825 200.411 37.6825C200.966 37.6825 201.4 37.5692 201.711 37.3425C202.029 37.1158 202.187 36.8042 202.187 36.4075C202.187 36.1752 202.131 35.9882 202.017 35.8465C201.91 35.6992 201.68 35.5603 201.329 35.43C200.978 35.2997 200.442 35.1382 199.722 34.9455C198.935 34.7415 198.309 34.5233 197.844 34.291C197.385 34.053 197.056 33.7782 196.858 33.4665C196.665 33.1492 196.569 32.7667 196.569 32.319C196.569 31.7637 196.716 31.2792 197.011 30.8655C197.306 30.4518 197.719 30.1317 198.252 29.905C198.79 29.6783 199.419 29.565 200.139 29.565C200.842 29.565 201.468 29.6755 202.017 29.8965C202.567 30.1175 203.012 30.432 203.352 30.84C203.692 31.2423 203.896 31.7155 203.964 32.2595L202.145 32.591C202.083 32.149 201.876 31.8005 201.524 31.5455C201.173 31.2905 200.717 31.1517 200.156 31.129C199.618 31.1063 199.181 31.197 198.847 31.401C198.513 31.5993 198.345 31.8742 198.345 32.2255C198.345 32.4295 198.408 32.6023 198.532 32.744C198.663 32.8857 198.912 33.0217 199.28 33.152C199.649 33.2823 200.193 33.4382 200.912 33.6195C201.683 33.8178 202.295 34.0388 202.748 34.2825C203.202 34.5205 203.525 34.8067 203.717 35.141C203.916 35.4697 204.015 35.8692 204.015 36.3395C204.015 37.2462 203.683 37.9573 203.02 38.473C202.363 38.9887 201.454 39.2465 200.292 39.2465Z" fill="#3734A9"/>
<rect width="60" height="60" rx="30" fill="#22D497"/>
<path d="M39 28.7679C40.3333 29.5378 40.3333 31.4623 39 32.2321L26.25 39.5933C24.9167 40.3631 23.25 39.4008 23.25 37.8612L23.25 23.1388C23.25 21.5992 24.9167 20.6369 26.25 21.4067L39 28.7679Z" fill="white"/>
</svg>
